<mxfile host="app.diagrams.net" agent="Mozilla/5.0 (Windows NT 10.0; Win64; x64) AppleWebKit/537.36 (KHTML, like Gecko) Chrome/130.0.0.0 Safari/537.36" version="24.8.4">
  <diagram name="Page-1" id="5yVlHun-3chO63fxTbM6">
    <mxGraphModel dx="1260" dy="695" grid="1" gridSize="10" guides="1" tooltips="1" connect="1" arrows="1" fold="1" page="1" pageScale="1" pageWidth="850" pageHeight="1100" math="0" shadow="0">
      <root>
        <mxCell id="0" />
        <mxCell id="1" parent="0" />
        <mxCell id="2-yVBEwC3tpA_ouxXD8Q-10" style="edgeStyle=orthogonalEdgeStyle;rounded=0;orthogonalLoop=1;jettySize=auto;html=1;entryX=1;entryY=0.5;entryDx=0;entryDy=0;" edge="1" parent="1" source="2-yVBEwC3tpA_ouxXD8Q-1" target="2-yVBEwC3tpA_ouxXD8Q-8">
          <mxGeometry relative="1" as="geometry" />
        </mxCell>
        <mxCell id="2-yVBEwC3tpA_ouxXD8Q-12" style="edgeStyle=orthogonalEdgeStyle;rounded=0;orthogonalLoop=1;jettySize=auto;html=1;entryX=1;entryY=0.5;entryDx=0;entryDy=0;" edge="1" parent="1" source="2-yVBEwC3tpA_ouxXD8Q-1" target="2-yVBEwC3tpA_ouxXD8Q-11">
          <mxGeometry relative="1" as="geometry" />
        </mxCell>
        <mxCell id="2-yVBEwC3tpA_ouxXD8Q-1" value="APP" style="rounded=1;whiteSpace=wrap;html=1;fillColor=#dae8fc;strokeColor=#6c8ebf;" vertex="1" parent="1">
          <mxGeometry x="520" y="110" width="120" height="390" as="geometry" />
        </mxCell>
        <mxCell id="2-yVBEwC3tpA_ouxXD8Q-15" value="" style="edgeStyle=orthogonalEdgeStyle;rounded=0;orthogonalLoop=1;jettySize=auto;html=1;" edge="1" parent="1" source="2-yVBEwC3tpA_ouxXD8Q-3" target="2-yVBEwC3tpA_ouxXD8Q-4">
          <mxGeometry relative="1" as="geometry" />
        </mxCell>
        <mxCell id="2-yVBEwC3tpA_ouxXD8Q-3" value="Azure" style="rounded=1;whiteSpace=wrap;html=1;" vertex="1" parent="1">
          <mxGeometry x="40" y="330" width="120" height="60" as="geometry" />
        </mxCell>
        <mxCell id="2-yVBEwC3tpA_ouxXD8Q-4" value="OpenAI" style="rounded=1;whiteSpace=wrap;html=1;" vertex="1" parent="1">
          <mxGeometry x="40" y="440" width="120" height="60" as="geometry" />
        </mxCell>
        <mxCell id="2-yVBEwC3tpA_ouxXD8Q-14" style="edgeStyle=orthogonalEdgeStyle;rounded=0;orthogonalLoop=1;jettySize=auto;html=1;" edge="1" parent="1" source="2-yVBEwC3tpA_ouxXD8Q-5" target="2-yVBEwC3tpA_ouxXD8Q-3">
          <mxGeometry relative="1" as="geometry" />
        </mxCell>
        <mxCell id="2-yVBEwC3tpA_ouxXD8Q-21" style="edgeStyle=orthogonalEdgeStyle;rounded=0;orthogonalLoop=1;jettySize=auto;html=1;entryX=0;entryY=0.5;entryDx=0;entryDy=0;exitX=0;exitY=0.5;exitDx=0;exitDy=0;" edge="1" parent="1" source="2-yVBEwC3tpA_ouxXD8Q-5" target="2-yVBEwC3tpA_ouxXD8Q-19">
          <mxGeometry relative="1" as="geometry" />
        </mxCell>
        <mxCell id="2-yVBEwC3tpA_ouxXD8Q-5" value="GWAY" style="rounded=1;whiteSpace=wrap;html=1;" vertex="1" parent="1">
          <mxGeometry x="40" y="220" width="120" height="60" as="geometry" />
        </mxCell>
        <mxCell id="2-yVBEwC3tpA_ouxXD8Q-7" style="edgeStyle=orthogonalEdgeStyle;rounded=0;orthogonalLoop=1;jettySize=auto;html=1;entryX=1;entryY=0.5;entryDx=0;entryDy=0;" edge="1" parent="1" source="2-yVBEwC3tpA_ouxXD8Q-6" target="2-yVBEwC3tpA_ouxXD8Q-1">
          <mxGeometry relative="1" as="geometry" />
        </mxCell>
        <mxCell id="2-yVBEwC3tpA_ouxXD8Q-6" value="Image" style="rounded=1;whiteSpace=wrap;html=1;" vertex="1" parent="1">
          <mxGeometry x="700" y="275" width="120" height="60" as="geometry" />
        </mxCell>
        <mxCell id="2-yVBEwC3tpA_ouxXD8Q-9" style="edgeStyle=orthogonalEdgeStyle;rounded=0;orthogonalLoop=1;jettySize=auto;html=1;" edge="1" parent="1" source="2-yVBEwC3tpA_ouxXD8Q-8" target="2-yVBEwC3tpA_ouxXD8Q-5">
          <mxGeometry relative="1" as="geometry" />
        </mxCell>
        <mxCell id="2-yVBEwC3tpA_ouxXD8Q-8" value="Storage" style="rounded=1;whiteSpace=wrap;html=1;" vertex="1" parent="1">
          <mxGeometry x="305" y="220" width="120" height="60" as="geometry" />
        </mxCell>
        <mxCell id="2-yVBEwC3tpA_ouxXD8Q-13" style="edgeStyle=orthogonalEdgeStyle;rounded=0;orthogonalLoop=1;jettySize=auto;html=1;entryX=1;entryY=0.5;entryDx=0;entryDy=0;" edge="1" parent="1" source="2-yVBEwC3tpA_ouxXD8Q-11" target="2-yVBEwC3tpA_ouxXD8Q-5">
          <mxGeometry relative="1" as="geometry" />
        </mxCell>
        <mxCell id="2-yVBEwC3tpA_ouxXD8Q-11" value="Analyze" style="rounded=1;whiteSpace=wrap;html=1;" vertex="1" parent="1">
          <mxGeometry x="305" y="310" width="120" height="60" as="geometry" />
        </mxCell>
        <mxCell id="2-yVBEwC3tpA_ouxXD8Q-18" style="edgeStyle=orthogonalEdgeStyle;rounded=0;orthogonalLoop=1;jettySize=auto;html=1;entryX=1;entryY=0.5;entryDx=0;entryDy=0;" edge="1" parent="1" source="2-yVBEwC3tpA_ouxXD8Q-16" target="2-yVBEwC3tpA_ouxXD8Q-17">
          <mxGeometry relative="1" as="geometry" />
        </mxCell>
        <mxCell id="2-yVBEwC3tpA_ouxXD8Q-16" value="QUEUE" style="rounded=1;whiteSpace=wrap;html=1;fillColor=#d5e8d4;strokeColor=#82b366;" vertex="1" parent="1">
          <mxGeometry x="302.5" y="120" width="120" height="60" as="geometry" />
        </mxCell>
        <mxCell id="2-yVBEwC3tpA_ouxXD8Q-17" value="DB" style="rounded=1;whiteSpace=wrap;html=1;fillColor=#d5e8d4;strokeColor=#82b366;" vertex="1" parent="1">
          <mxGeometry x="137.5" y="135" width="120" height="30" as="geometry" />
        </mxCell>
        <mxCell id="2-yVBEwC3tpA_ouxXD8Q-20" style="edgeStyle=orthogonalEdgeStyle;rounded=0;orthogonalLoop=1;jettySize=auto;html=1;entryX=0.5;entryY=0;entryDx=0;entryDy=0;" edge="1" parent="1" source="2-yVBEwC3tpA_ouxXD8Q-19" target="2-yVBEwC3tpA_ouxXD8Q-1">
          <mxGeometry relative="1" as="geometry" />
        </mxCell>
        <mxCell id="2-yVBEwC3tpA_ouxXD8Q-19" value="Message" style="rounded=1;whiteSpace=wrap;html=1;" vertex="1" parent="1">
          <mxGeometry x="220" y="30" width="120" height="60" as="geometry" />
        </mxCell>
      </root>
    </mxGraphModel>
  </diagram>
</mxfile>
